<svg width="500" height="500" viewBox="0 0 500 500" fill="none" xmlns="http://www.w3.org/2000/svg">
<rect width="500" height="500" rx="100" fill="#415A77"/>
<line x1="10" y1="223" x2="490" y2="223" stroke="#E0E1DD" stroke-width="10"/>
<line x1="10" y1="283" x2="490" y2="283" stroke="#E0E1DD" stroke-width="10"/>
<line x1="10" y1="343" x2="490" y2="343" stroke="#E0E1DD" stroke-width="10"/>
<line x1="10.0117" y1="163" x2="490.012" y2="163" stroke="#E0E1DD" stroke-width="10"/>
<line x1="10.0117" y1="103" x2="490.012" y2="103" stroke="#E0E1DD" stroke-width="10"/>
<line x1="130" y1="430" x2="130" y2="80" stroke="#E0E1DD" stroke-width="10"/>
<line x1="50" y1="430" x2="50" y2="80" stroke="#E0E1DD" stroke-width="10"/>
<line x1="210" y1="430" x2="210" y2="80" stroke="#E0E1DD" stroke-width="10"/>
<line x1="290" y1="430" x2="290" y2="80" stroke="#E0E1DD" stroke-width="10"/>
<line x1="370" y1="430" x2="370" y2="80" stroke="#E0E1DD" stroke-width="10"/>
<line x1="450" y1="430" x2="450" y2="80" stroke="#E0E1DD" stroke-width="10"/>
<line x1="10" y1="403" x2="490" y2="403" stroke="#E0E1DD" stroke-width="10"/>
<circle cx="90" cy="100" r="25" fill="#0D1B2A"/>
<path d="M84.4975 109V91.5455H96.0543V94.5881H88.1879V98.7472H95.2873V101.79H88.1879V109H84.4975Z" fill="white"/>
<circle cx="170" cy="160" r="25" fill="#0D1B2A"/>
<path d="M163.583 169V151.545H170.572C171.856 151.545 172.927 151.736 173.785 152.116C174.643 152.497 175.288 153.026 175.72 153.702C176.152 154.372 176.368 155.145 176.368 156.02C176.368 156.702 176.231 157.301 175.958 157.818C175.686 158.33 175.311 158.75 174.833 159.08C174.362 159.403 173.822 159.634 173.214 159.77V159.94C173.879 159.969 174.501 160.156 175.081 160.503C175.666 160.849 176.14 161.335 176.504 161.96C176.868 162.58 177.049 163.318 177.049 164.176C177.049 165.102 176.819 165.929 176.359 166.656C175.904 167.378 175.231 167.949 174.339 168.369C173.447 168.79 172.348 169 171.041 169H163.583ZM167.274 165.983H170.282C171.311 165.983 172.061 165.787 172.532 165.395C173.004 164.997 173.24 164.469 173.24 163.81C173.24 163.327 173.123 162.901 172.89 162.531C172.657 162.162 172.325 161.872 171.893 161.662C171.467 161.452 170.958 161.347 170.368 161.347H167.274V165.983ZM167.274 158.849H170.01C170.515 158.849 170.964 158.761 171.356 158.585C171.754 158.403 172.066 158.148 172.294 157.818C172.527 157.489 172.643 157.094 172.643 156.634C172.643 156.003 172.419 155.494 171.97 155.108C171.527 154.722 170.896 154.528 170.078 154.528H167.274V158.849Z" fill="white"/>
<circle cx="327" cy="280" r="25" fill="#0D1B2A"/>
<path d="M320.583 289V271.545H327.572C328.856 271.545 329.927 271.736 330.785 272.116C331.643 272.497 332.288 273.026 332.72 273.702C333.152 274.372 333.368 275.145 333.368 276.02C333.368 276.702 333.231 277.301 332.958 277.818C332.686 278.33 332.311 278.75 331.833 279.08C331.362 279.403 330.822 279.634 330.214 279.77V279.94C330.879 279.969 331.501 280.156 332.081 280.503C332.666 280.849 333.14 281.335 333.504 281.96C333.868 282.58 334.049 283.318 334.049 284.176C334.049 285.102 333.819 285.929 333.359 286.656C332.904 287.378 332.231 287.949 331.339 288.369C330.447 288.79 329.348 289 328.041 289H320.583ZM324.274 285.983H327.282C328.311 285.983 329.061 285.787 329.532 285.395C330.004 284.997 330.24 284.469 330.24 283.81C330.24 283.327 330.123 282.901 329.89 282.531C329.657 282.162 329.325 281.872 328.893 281.662C328.467 281.452 327.958 281.347 327.368 281.347H324.274V285.983ZM324.274 278.849H327.01C327.515 278.849 327.964 278.761 328.356 278.585C328.754 278.403 329.066 278.148 329.294 277.818C329.527 277.489 329.643 277.094 329.643 276.634C329.643 276.003 329.419 275.494 328.97 275.108C328.527 274.722 327.896 274.528 327.078 274.528H324.274V278.849Z" fill="white"/>
<circle cx="170" cy="220" r="25" fill="#0D1B2A"/>
<path d="M164.169 229V211.545H175.931V214.588H167.86V218.747H175.326V221.79H167.86V225.957H175.965V229H164.169Z" fill="white"/>
<circle cx="410" cy="340" r="25" fill="#0D1B2A"/>
<path d="M404.169 349V331.545H415.931V334.588H407.86V338.747H415.326V341.79H407.86V345.957H415.965V349H404.169Z" fill="white"/>
<circle cx="170" cy="280" r="25" fill="#0D1B2A"/>
<path d="M165.549 289H161.594L167.62 271.545H172.376L178.393 289H174.438L170.066 275.534H169.93L165.549 289ZM165.302 282.139H174.643V285.02H165.302V282.139Z" fill="white"/>
<circle cx="170" cy="280" r="25" fill="#0D1B2A"/>
<path d="M165.549 289H161.594L167.62 271.545H172.376L178.393 289H174.438L170.066 275.534H169.93L165.549 289ZM165.302 282.139H174.643V285.02H165.302V282.139Z" fill="white"/>
<circle cx="410" cy="102" r="25" fill="#0D1B2A"/>
<path d="M405.549 111H401.594L407.62 93.5455H412.376L418.393 111H414.438L410.066 97.5341H409.93L405.549 111ZM405.302 104.139H414.643V107.02H405.302V104.139Z" fill="white"/>
<circle cx="410" cy="400" r="25" fill="#0D1B2A"/>
<path d="M405.549 409H401.594L407.62 391.545H412.376L418.393 409H414.438L410.066 395.534H409.93L405.549 409ZM405.302 402.139H414.643V405.02H405.302V402.139Z" fill="white"/>
<circle cx="250" cy="102" r="25" fill="#0D1B2A"/>
<path d="M253.962 99.1875C253.843 98.7727 253.675 98.4062 253.459 98.0881C253.243 97.7642 252.979 97.4915 252.667 97.2699C252.36 97.0426 252.007 96.8693 251.61 96.75C251.218 96.6307 250.783 96.571 250.306 96.571C249.414 96.571 248.63 96.7926 247.953 97.2358C247.283 97.679 246.76 98.3239 246.385 99.1705C246.01 100.011 245.823 101.04 245.823 102.256C245.823 103.472 246.007 104.506 246.377 105.358C246.746 106.21 247.269 106.861 247.945 107.31C248.621 107.753 249.419 107.974 250.34 107.974C251.175 107.974 251.888 107.827 252.479 107.531C253.076 107.23 253.53 106.807 253.843 106.261C254.161 105.716 254.32 105.071 254.32 104.327L255.07 104.438H250.57V101.659H257.874V103.858C257.874 105.392 257.55 106.71 256.902 107.812C256.255 108.909 255.363 109.756 254.226 110.352C253.09 110.943 251.789 111.239 250.323 111.239C248.686 111.239 247.249 110.878 246.01 110.156C244.772 109.429 243.806 108.398 243.113 107.062C242.425 105.722 242.081 104.131 242.081 102.29C242.081 100.875 242.286 99.6136 242.695 98.5057C243.11 97.392 243.689 96.4489 244.434 95.6761C245.178 94.9034 246.044 94.3153 247.033 93.9119C248.022 93.5085 249.093 93.3068 250.246 93.3068C251.235 93.3068 252.155 93.4517 253.007 93.7415C253.86 94.0256 254.615 94.429 255.275 94.9517C255.939 95.4744 256.482 96.0966 256.902 96.8182C257.323 97.5341 257.593 98.3239 257.712 99.1875H253.962Z" fill="white"/>
<circle cx="250" cy="400" r="25" fill="#0D1B2A"/>
<path d="M253.962 397.188C253.843 396.773 253.675 396.406 253.459 396.088C253.243 395.764 252.979 395.491 252.667 395.27C252.36 395.043 252.007 394.869 251.61 394.75C251.218 394.631 250.783 394.571 250.306 394.571C249.414 394.571 248.63 394.793 247.953 395.236C247.283 395.679 246.76 396.324 246.385 397.17C246.01 398.011 245.823 399.04 245.823 400.256C245.823 401.472 246.007 402.506 246.377 403.358C246.746 404.21 247.269 404.861 247.945 405.31C248.621 405.753 249.419 405.974 250.34 405.974C251.175 405.974 251.888 405.827 252.479 405.531C253.076 405.23 253.53 404.807 253.843 404.261C254.161 403.716 254.32 403.071 254.32 402.327L255.07 402.438H250.57V399.659H257.874V401.858C257.874 403.392 257.55 404.71 256.902 405.812C256.255 406.909 255.363 407.756 254.226 408.352C253.09 408.943 251.789 409.239 250.323 409.239C248.686 409.239 247.249 408.878 246.01 408.156C244.772 407.429 243.806 406.398 243.113 405.062C242.425 403.722 242.081 402.131 242.081 400.29C242.081 398.875 242.286 397.614 242.695 396.506C243.11 395.392 243.689 394.449 244.434 393.676C245.178 392.903 246.044 392.315 247.033 391.912C248.022 391.509 249.093 391.307 250.246 391.307C251.235 391.307 252.155 391.452 253.007 391.741C253.86 392.026 254.615 392.429 255.275 392.952C255.939 393.474 256.482 394.097 256.902 394.818C257.323 395.534 257.593 396.324 257.712 397.188H253.962Z" fill="white"/>
<circle cx="410" cy="220" r="25" fill="#0D1B2A"/>
<path d="M413.962 217.188C413.843 216.773 413.675 216.406 413.459 216.088C413.243 215.764 412.979 215.491 412.667 215.27C412.36 215.043 412.007 214.869 411.61 214.75C411.218 214.631 410.783 214.571 410.306 214.571C409.414 214.571 408.63 214.793 407.953 215.236C407.283 215.679 406.76 216.324 406.385 217.17C406.01 218.011 405.823 219.04 405.823 220.256C405.823 221.472 406.007 222.506 406.377 223.358C406.746 224.21 407.269 224.861 407.945 225.31C408.621 225.753 409.419 225.974 410.34 225.974C411.175 225.974 411.888 225.827 412.479 225.531C413.076 225.23 413.53 224.807 413.843 224.261C414.161 223.716 414.32 223.071 414.32 222.327L415.07 222.438H410.57V219.659H417.874V221.858C417.874 223.392 417.55 224.71 416.902 225.812C416.255 226.909 415.363 227.756 414.226 228.352C413.09 228.943 411.789 229.239 410.323 229.239C408.686 229.239 407.249 228.878 406.01 228.156C404.772 227.429 403.806 226.398 403.113 225.062C402.425 223.722 402.081 222.131 402.081 220.29C402.081 218.875 402.286 217.614 402.695 216.506C403.11 215.392 403.689 214.449 404.434 213.676C405.178 212.903 406.044 212.315 407.033 211.912C408.022 211.509 409.093 211.307 410.246 211.307C411.235 211.307 412.155 211.452 413.007 211.741C413.86 212.026 414.615 212.429 415.275 212.952C415.939 213.474 416.482 214.097 416.902 214.818C417.323 215.534 417.593 216.324 417.712 217.188H413.962Z" fill="white"/>
<circle cx="90" cy="340" r="25" fill="#D62828"/>
<path d="M97.8942 337.656H94.1612C94.093 337.173 93.9538 336.744 93.7436 336.369C93.5334 335.989 93.2635 335.665 92.9339 335.398C92.6044 335.131 92.2237 334.926 91.7919 334.784C91.3658 334.642 90.9027 334.571 90.4027 334.571C89.4993 334.571 88.7124 334.795 88.0419 335.244C87.3714 335.687 86.8516 336.335 86.4822 337.188C86.1129 338.034 85.9283 339.062 85.9283 340.273C85.9283 341.517 86.1129 342.562 86.4822 343.409C86.8572 344.256 87.38 344.895 88.0504 345.327C88.7209 345.759 89.4964 345.974 90.3771 345.974C90.8714 345.974 91.3288 345.909 91.7493 345.778C92.1754 345.648 92.5533 345.457 92.8828 345.207C93.2124 344.952 93.4851 344.642 93.701 344.278C93.9226 343.915 94.076 343.5 94.1612 343.034L97.8942 343.051C97.7976 343.852 97.5561 344.625 97.1697 345.369C96.7891 346.108 96.2749 346.77 95.6271 347.355C94.9851 347.935 94.218 348.395 93.326 348.736C92.4396 349.071 91.4368 349.239 90.3175 349.239C88.7607 349.239 87.3686 348.886 86.1413 348.182C84.9197 347.477 83.9538 346.457 83.2436 345.122C82.5391 343.787 82.1868 342.17 82.1868 340.273C82.1868 338.369 82.5447 336.75 83.2607 335.415C83.9766 334.08 84.9482 333.062 86.1754 332.364C87.4027 331.659 88.7834 331.307 90.3175 331.307C91.3288 331.307 92.2663 331.449 93.13 331.733C93.9993 332.017 94.7692 332.432 95.4396 332.977C96.1101 333.517 96.6555 334.179 97.076 334.963C97.5021 335.747 97.7749 336.645 97.8942 337.656Z" fill="white"/>
<circle cx="250" cy="160" r="25" fill="#D62828"/>
<path d="M257.894 157.656H254.161C254.093 157.173 253.954 156.744 253.744 156.369C253.533 155.989 253.263 155.665 252.934 155.398C252.604 155.131 252.224 154.926 251.792 154.784C251.366 154.642 250.903 154.571 250.403 154.571C249.499 154.571 248.712 154.795 248.042 155.244C247.371 155.687 246.852 156.335 246.482 157.188C246.113 158.034 245.928 159.062 245.928 160.273C245.928 161.517 246.113 162.562 246.482 163.409C246.857 164.256 247.38 164.895 248.05 165.327C248.721 165.759 249.496 165.974 250.377 165.974C250.871 165.974 251.329 165.909 251.749 165.778C252.175 165.648 252.553 165.457 252.883 165.207C253.212 164.952 253.485 164.642 253.701 164.278C253.923 163.915 254.076 163.5 254.161 163.034L257.894 163.051C257.798 163.852 257.556 164.625 257.17 165.369C256.789 166.108 256.275 166.77 255.627 167.355C254.985 167.935 254.218 168.395 253.326 168.736C252.44 169.071 251.437 169.239 250.317 169.239C248.761 169.239 247.369 168.886 246.141 168.182C244.92 167.477 243.954 166.457 243.244 165.122C242.539 163.787 242.187 162.17 242.187 160.273C242.187 158.369 242.545 156.75 243.261 155.415C243.977 154.08 244.948 153.062 246.175 152.364C247.403 151.659 248.783 151.307 250.317 151.307C251.329 151.307 252.266 151.449 253.13 151.733C253.999 152.017 254.769 152.432 255.44 152.977C256.11 153.517 256.656 154.179 257.076 154.963C257.502 155.747 257.775 156.645 257.894 157.656Z" fill="white"/>
<circle cx="410" cy="280" r="25" fill="#D62828"/>
<path d="M417.894 277.656H414.161C414.093 277.173 413.954 276.744 413.744 276.369C413.533 275.989 413.263 275.665 412.934 275.398C412.604 275.131 412.224 274.926 411.792 274.784C411.366 274.642 410.903 274.571 410.403 274.571C409.499 274.571 408.712 274.795 408.042 275.244C407.371 275.687 406.852 276.335 406.482 277.188C406.113 278.034 405.928 279.062 405.928 280.273C405.928 281.517 406.113 282.562 406.482 283.409C406.857 284.256 407.38 284.895 408.05 285.327C408.721 285.759 409.496 285.974 410.377 285.974C410.871 285.974 411.329 285.909 411.749 285.778C412.175 285.648 412.553 285.457 412.883 285.207C413.212 284.952 413.485 284.642 413.701 284.278C413.923 283.915 414.076 283.5 414.161 283.034L417.894 283.051C417.798 283.852 417.556 284.625 417.17 285.369C416.789 286.108 416.275 286.77 415.627 287.355C414.985 287.935 414.218 288.395 413.326 288.736C412.44 289.071 411.437 289.239 410.317 289.239C408.761 289.239 407.369 288.886 406.141 288.182C404.92 287.477 403.954 286.457 403.244 285.122C402.539 283.787 402.187 282.17 402.187 280.273C402.187 278.369 402.545 276.75 403.261 275.415C403.977 274.08 404.948 273.062 406.175 272.364C407.403 271.659 408.783 271.307 410.317 271.307C411.329 271.307 412.266 271.449 413.13 271.733C413.999 272.017 414.769 272.432 415.44 272.977C416.11 273.517 416.656 274.179 417.076 274.963C417.502 275.747 417.775 276.645 417.894 277.656Z" fill="white"/>
<circle cx="90" cy="400" r="25" fill="#0D1B2A"/>
<path d="M84.4975 409V391.545H96.0543V394.588H88.1879V398.747H95.2873V401.79H88.1879V409H84.4975Z" fill="white"/>
<circle cx="250" cy="340" r="25" fill="#0D1B2A"/>
<path d="M248.974 349H242.787V331.545H249.025C250.781 331.545 252.292 331.895 253.559 332.594C254.826 333.287 255.801 334.284 256.483 335.585C257.17 336.886 257.514 338.443 257.514 340.256C257.514 342.074 257.17 343.636 256.483 344.943C255.801 346.25 254.821 347.253 253.542 347.952C252.27 348.651 250.747 349 248.974 349ZM246.477 345.838H248.821C249.912 345.838 250.829 345.645 251.574 345.259C252.324 344.866 252.886 344.261 253.261 343.443C253.642 342.619 253.832 341.557 253.832 340.256C253.832 338.966 253.642 337.912 253.261 337.094C252.886 336.276 252.326 335.673 251.582 335.287C250.838 334.901 249.92 334.707 248.829 334.707H246.477V345.838Z" fill="white"/>
<circle cx="410" cy="160" r="25" fill="#0D1B2A"/>
<path d="M408.974 169H402.787V151.545H409.025C410.781 151.545 412.292 151.895 413.559 152.594C414.826 153.287 415.801 154.284 416.483 155.585C417.17 156.886 417.514 158.443 417.514 160.256C417.514 162.074 417.17 163.636 416.483 164.943C415.801 166.25 414.821 167.253 413.542 167.952C412.27 168.651 410.747 169 408.974 169ZM406.477 165.838H408.821C409.912 165.838 410.829 165.645 411.574 165.259C412.324 164.866 412.886 164.261 413.261 163.443C413.642 162.619 413.832 161.557 413.832 160.256C413.832 158.966 413.642 157.912 413.261 157.094C412.886 156.276 412.326 155.673 411.582 155.287C410.838 154.901 409.92 154.707 408.829 154.707H406.477V165.838Z" fill="white"/>
<circle cx="250" cy="220" r="25" fill="#0D1B2A"/>
<path d="M244.498 229V211.545H256.054V214.588H248.188V218.747H255.287V221.79H248.188V229H244.498Z" fill="white"/>
</svg>
